<svg xmlns="http://www.w3.org/2000/svg" xmlns:xlink="http://www.w3.org/1999/xlink" width="20" height="20" viewBox="0 0 20 20">
    <defs>
        <path id="prefix__a" d="M11.993 13.349a3.062 3.062 0 01-1.983.723 3.1 3.1 0 01-2.006-.737c-3.594-3.028-5.882-4.634-6-7.929C1.877 1.919 5.697.645 8.04 3.51a2.51 2.51 0 001.954.91c.775 0 1.492-.336 1.967-.921 2.291-2.82 6.213-1.619 6.034 2.009-.16 3.227-2.536 4.893-6.002 7.841M10.387 2.31a.504.504 0 01-.393.182.492.492 0 01-.383-.176C6.068-2.017-.188.141.004 5.473c.153 4.243 3.161 6.347 6.703 9.33A5.12 5.12 0 0010.01 16c1.181 0 2.361-.4 3.306-1.205 3.503-2.98 6.473-5.069 6.676-9.196.27-5.451-6.07-7.64-9.605-3.289"/>
    </defs>
    <g fill="none" fill-rule="evenodd" transform="matrix(1 0 0 -1 0 18)">
        <mask id="prefix__b" fill="#fff">
            <use xlink:href="#prefix__a"/>
        </mask>
        <use fill="#FFF" fill-opacity="0" xlink:href="#prefix__a"/>
        <g fill="#9EA0A5" mask="url(#prefix__b)">
            <path d="M0 0H22V22H0z" transform="translate(-1 -3)"/>
        </g>
    </g>
</svg>
